<?xml version="1.0" standalone="no"?>
<!DOCTYPE svg PUBLIC "-//W3C//DTD SVG 20010904//EN"
 "http://www.w3.org/TR/2001/REC-SVG-20010904/DTD/svg10.dtd">
<svg version="1.0" xmlns="http://www.w3.org/2000/svg"
 width="512.000000pt" height="512.000000pt" viewBox="0 0 512.000000 512.000000"
 preserveAspectRatio="xMidYMid meet">

<g transform="translate(0.000000,512.000000) scale(0.100000,-0.100000)"
fill="#000000" stroke="none">
<path d="M0 3840 l0 -1280 35 0 c25 0 43 7 58 24 22 23 108 66 133 66 8 0 14
5 14 10 0 6 7 10 16 10 8 0 12 -5 8 -11 -3 -6 0 -16 7 -21 10 -7 8 -9 -8 -5
-14 3 -20 1 -17 -7 3 -7 -1 -13 -8 -14 -64 -9 -90 -16 -95 -28 -3 -8 -11 -14
-19 -14 -8 0 -14 -4 -14 -9 0 -5 -9 -13 -20 -16 -13 -4 -20 -16 -21 -33 -1
-26 -1 -26 -10 6 -8 25 -15 32 -34 32 -22 0 -25 -4 -25 -40 0 -22 5 -40 10
-40 6 0 10 -9 10 -20 0 -11 -4 -20 -10 -20 -14 0 -14 -467 0 -475 6 -3 10 -14
9 -23 0 -14 -2 -13 -9 3 -6 14 -9 15 -9 4 -1 -8 4 -20 11 -27 8 -8 8 -15 -1
-25 -8 -11 -11 -250 -11 -951 l1 -936 854 0 c470 0 855 3 855 6 0 11 -41 74
-48 74 -4 0 -18 9 -30 19 -18 13 -25 30 -29 72 -3 30 -8 58 -13 62 -11 13 10
87 26 87 7 0 17 6 21 13 4 6 19 12 34 13 22 1 25 -3 22 -30 -3 -27 -2 -28 7
-11 9 18 10 17 7 -7 -3 -16 0 -28 6 -28 5 0 4 -7 -3 -15 -10 -12 -9 -15 4 -15
10 0 14 -5 10 -11 -3 -6 0 -15 7 -20 12 -7 12 -9 0 -9 -10 0 -11 -3 -2 -14 6
-7 14 -33 17 -57 4 -24 12 -56 20 -71 8 -15 11 -34 8 -42 -6 -15 135 -16 1470
-16 l1476 0 0 40 0 40 160 0 160 0 0 -40 0 -40 40 0 40 0 0 2560 0 2560 -2377
0 -2377 0 49 -51 c55 -56 163 -145 240 -198 28 -19 75 -56 105 -81 30 -25 75
-58 100 -72 53 -31 75 -54 83 -88 4 -14 17 -30 29 -36 13 -6 17 -9 10 -7 -9 2
-10 -2 -2 -16 5 -11 6 -29 2 -40 -7 -20 -13 -16 -72 43 -50 49 -74 65 -103 69
-27 4 -36 3 -31 -6 4 -7 -1 -5 -12 5 -20 17 -74 14 -74 -4 0 -5 -6 -6 -12 -1
-7 4 -29 13 -48 19 -19 6 -34 16 -32 23 1 6 -7 21 -18 33 -11 12 -20 27 -20
33 0 14 -108 85 -129 85 -9 0 -56 37 -104 83 -80 74 -90 88 -106 142 l-17 60
-102 3 -102 3 0 -1281z m4418 1210 c17 -11 32 -25 31 -32 0 -10 -2 -10 -6 0
-8 20 -23 14 -23 -10 0 -13 -18 -59 -40 -103 -22 -44 -40 -87 -40 -97 0 -9
-19 -38 -42 -65 -23 -26 -65 -80 -95 -120 -49 -66 -85 -94 -101 -78 -7 7 -8
12 -11 40 -2 24 -32 4 -101 -68 -48 -48 -63 -59 -70 -48 -7 13 -11 13 -26 0
-16 -12 -17 -12 -9 1 9 16 -30 -13 -53 -40 -12 -13 -16 -12 -33 9 -15 18 -19
20 -19 7 0 -14 -2 -15 -14 -4 -8 7 -12 16 -9 21 2 4 2 7 0 7 -12 0 -83 -33
-88 -41 -3 -6 -18 -12 -34 -15 -16 -3 -40 -13 -54 -23 -28 -20 -94 -32 -181
-35 -56 -1 -109 23 -110 52 0 21 31 13 73 -20 28 -22 39 -27 34 -15 -3 9 -2
17 3 17 5 0 46 18 92 40 62 29 76 39 56 40 -15 0 -30 -4 -33 -10 -3 -5 -23
-10 -43 -9 l-37 0 23 17 c47 34 119 72 292 156 63 30 82 42 239 144 63 41 135
93 160 117 54 50 222 185 230 185 3 0 21 -9 39 -20z m-1898 -181 c0 -7 -9 -27
-21 -45 -11 -19 -17 -39 -13 -45 4 -7 -31 -48 -85 -100 -50 -49 -91 -92 -91
-97 0 -4 13 -9 29 -10 22 -2 38 9 80 53 32 34 63 57 79 60 15 2 52 11 82 19
66 19 71 19 68 4 -5 -23 -35 -45 -69 -51 -19 -3 -42 -8 -52 -12 -13 -6 -16 -3
-11 9 13 34 -27 9 -50 -31 -5 -9 -2 -11 8 -7 9 4 18 -1 22 -10 8 -20 52 -21
79 -2 24 16 171 59 187 54 6 -2 -17 -16 -50 -31 -34 -14 -62 -31 -62 -37 0
-32 304 7 395 50 33 16 61 27 64 25 5 -5 -25 -53 -53 -83 -61 -68 -269 -127
-448 -127 -47 0 -90 -3 -94 -7 -4 -5 -2 -8 6 -8 10 0 10 -3 0 -15 -7 -8 -8
-15 -3 -15 5 0 58 -6 119 -14 108 -14 241 -20 216 -10 -26 12 2 24 54 24 31 0
64 5 75 10 24 13 55 -1 87 -41 16 -20 33 -29 53 -29 16 0 29 5 29 11 0 8 5 8
15 -1 13 -10 15 -9 15 9 0 31 17 26 23 -7 6 -29 74 -82 106 -82 9 0 33 -9 54
-20 20 -11 45 -20 56 -20 10 0 29 -8 42 -18 27 -20 109 -56 153 -66 39 -10
156 -103 156 -126 0 -15 -30 -12 -36 5 -8 19 -53 32 -139 40 -56 5 -68 4 -57
-6 14 -15 16 -33 2 -24 -13 8 -13 -1 1 -26 6 -12 17 -18 25 -15 8 3 14 1 14
-3 0 -10 67 -53 87 -57 7 -1 26 -12 42 -23 16 -12 40 -21 53 -21 29 0 71 -42
92 -92 19 -44 89 -98 94 -73 11 52 93 -33 160 -165 54 -108 60 -137 41 -203
-12 -43 -36 -58 -54 -34 -13 19 -35 23 -35 7 0 -5 -7 -10 -15 -10 -8 0 -15 -5
-15 -11 0 -5 4 -7 10 -4 6 3 10 0 10 -7 0 -15 -48 -164 -63 -192 -5 -11 -27
-81 -49 -155 -41 -142 -43 -163 -23 -331 10 -88 96 -376 128 -430 11 -19 66
-95 121 -169 110 -148 242 -286 353 -371 40 -30 72 -58 72 -62 1 -5 -18 -8
-41 -8 -104 -1 -254 -13 -259 -22 -3 -5 -9 -9 -13 -8 -3 1 -30 -1 -59 -4 -28
-3 -95 -8 -148 -11 -167 -8 -272 -36 -344 -91 -31 -23 -101 -141 -91 -151 3
-3 -10 -24 -28 -47 -18 -22 -36 -53 -40 -68 -3 -15 -15 -30 -27 -33 -11 -4
-18 -9 -15 -13 4 -3 -3 -16 -15 -28 -23 -25 -39 -104 -20 -104 6 0 11 5 11 11
0 5 5 7 10 4 15 -9 12 -25 -5 -25 -8 0 -15 -5 -15 -11 0 -5 4 -8 8 -5 4 3 13
-8 19 -25 6 -16 8 -27 3 -24 -5 3 -11 -1 -14 -7 -5 -10 -7 -10 -12 -1 -7 16
-34 5 -34 -13 0 -23 29 -28 50 -9 18 17 19 16 26 -11 9 -40 22 -54 50 -54 12
0 26 -5 30 -11 4 -8 9 -7 15 2 6 11 15 10 44 -4 20 -9 50 -17 68 -18 62 -2
132 -24 129 -40 -3 -20 57 -39 101 -32 17 3 59 17 92 33 33 15 70 31 82 34 29
9 76 71 91 121 11 37 10 42 -10 60 -32 28 -54 65 -62 102 -9 41 -72 78 -152
88 -74 9 -96 18 -128 50 -26 26 -38 56 -41 107 -4 61 -5 69 -14 63 -18 -10
-20 12 -3 27 35 32 82 48 137 48 31 0 54 -4 51 -9 -6 -9 59 -31 93 -31 12 0
34 6 49 14 23 12 85 20 202 27 8 0 73 -2 143 -6 l129 -6 34 30 c59 53 148 53
207 2 36 -32 92 -137 102 -192 9 -48 -9 -144 -52 -269 -39 -115 -47 -200 -24
-243 10 -20 11 -33 4 -49 -7 -17 -6 -29 5 -45 16 -25 32 -22 32 7 0 11 9 24
20 30 18 10 20 9 16 -12 -3 -13 -8 -45 -11 -73 -15 -117 -55 -184 -112 -188
-24 -2 -28 2 -31 26 -4 32 -9 33 -34 10 -17 -15 -20 -15 -34 -1 -14 13 -13 19
7 57 24 47 21 59 -10 40 -14 -10 -17 -17 -10 -25 12 -15 -16 -64 -36 -64 -7 0
-18 -7 -25 -15 -7 -9 -15 -13 -18 -11 -6 7 -42 -13 -42 -23 0 -4 18 -6 39 -4
29 2 41 -1 46 -14 3 -10 1 -19 -4 -21 -6 -2 -11 -10 -11 -17 0 -20 -52 -43
-76 -33 -19 9 -44 51 -44 76 0 7 -21 22 -46 34 -26 11 -68 33 -94 48 -46 27
-105 47 -124 41 -12 -3 -74 -10 -99 -10 -10 -1 -16 -5 -13 -10 3 -5 -30 -9
-77 -8 -45 0 -97 -3 -116 -8 -30 -6 -33 -6 -20 7 8 8 43 30 79 48 77 40 75 39
68 45 -3 3 -18 -1 -34 -10 -35 -18 -74 -20 -75 -2 0 9 -2 9 -6 0 -2 -7 -9 -13
-15 -13 -6 0 -8 7 -4 15 6 17 -9 21 -19 5 -8 -12 -45 -13 -45 -1 0 4 -18 7
-40 5 -22 -1 -40 2 -40 7 0 5 -7 9 -16 9 -9 0 -12 -5 -8 -12 4 -7 3 -8 -5 -4
-6 4 -8 12 -5 18 5 8 1 9 -10 5 -14 -6 -17 -3 -12 9 5 12 0 11 -22 -4 -18 -13
-37 -18 -59 -15 -21 3 -33 1 -33 -6 0 -6 -6 -10 -12 -8 -7 1 -12 -6 -10 -15 2
-12 -2 -16 -13 -12 -18 7 -21 -22 -2 -29 8 -4 2 -14 -17 -32 l-29 -26 29 -30
c22 -22 25 -32 16 -41 -7 -7 -12 -9 -12 -5 0 10 -79 -21 -107 -43 -14 -11 -39
-20 -55 -20 -16 0 -39 -7 -52 -15 -13 -9 -28 -15 -32 -13 -5 2 -24 -3 -41 -11
-22 -9 -45 -11 -70 -5 -21 4 -48 7 -60 6 -13 -2 -23 2 -23 8 0 5 -5 10 -11 10
-6 0 -9 -7 -6 -14 4 -10 1 -13 -9 -9 -7 3 -14 11 -14 19 0 8 -4 14 -10 14 -5
0 -10 8 -10 18 0 14 -2 15 -10 2 -7 -11 -10 -5 -10 23 l0 37 -37 -15 c-39 -16
-57 -7 -45 23 3 10 0 13 -9 10 -8 -3 -13 -10 -12 -15 1 -6 -9 -8 -22 -5 -21 4
-23 8 -18 35 5 22 3 28 -6 23 -8 -5 -12 -3 -10 5 5 39 -2 69 -16 69 -8 0 -14
6 -12 13 1 7 -6 11 -16 9 -10 -2 -30 4 -44 13 -19 13 -27 14 -33 6 -4 -7 -14
6 -24 33 -10 25 -25 47 -34 50 -9 3 -18 17 -18 31 -1 14 2 22 7 19 5 -3 6 2 3
10 -10 27 -63 16 -65 -13 0 -9 -3 -11 -5 -4 -3 6 2 23 10 36 9 13 13 27 9 30
-3 4 0 7 8 7 11 0 11 2 -1 10 -10 6 -11 10 -2 10 6 0 12 4 12 10 0 5 -7 7 -16
3 -8 -3 -13 -11 -11 -18 3 -6 -4 -17 -15 -24 -11 -7 -17 -8 -14 -2 4 5 -1 14
-10 19 -13 7 -16 18 -11 45 3 19 2 38 -1 42 -4 3 -12 34 -17 68 -7 44 -15 62
-25 62 -8 1 -14 6 -13 13 4 19 -47 46 -83 44 -22 -2 -34 2 -35 10 0 7 0 46 1
86 1 57 -2 73 -14 78 -9 3 -16 15 -16 25 0 10 -4 19 -9 19 -5 0 -13 9 -16 21
-5 16 -13 20 -33 16 -22 -4 -35 4 -75 46 -37 41 -47 58 -45 81 2 16 10 32 18
36 31 15 117 40 180 51 36 6 92 20 125 30 78 24 190 45 290 54 44 4 84 10 90
13 5 3 21 6 34 6 l25 1 -2 265 c-1 146 -5 292 -8 326 -6 57 -5 62 16 67 14 4
19 10 14 18 -4 8 -3 10 5 5 6 -4 23 0 37 9 16 10 44 16 82 15 70 -1 231 8 253
16 10 2 45 7 80 9 87 5 136 30 149 75 14 50 12 144 -4 214 -8 34 -17 142 -21
241 -3 99 -11 236 -18 303 l-12 124 -373 3 c-205 1 -374 4 -377 6 -2 2 -9 105
-15 229 -12 242 -41 515 -56 530 -19 18 -180 31 -479 37 l-310 6 -28 -24 c-47
-41 -58 -170 -36 -425 11 -125 7 -181 -16 -238 -6 -14 -5 -17 3 -12 17 10 15
-6 -3 -30 -14 -19 -15 -18 -35 6 -11 14 -24 41 -29 60 -25 95 -51 252 -51 311
0 53 -4 69 -20 84 -19 17 -21 16 -68 -23 -75 -63 -187 -195 -224 -264 l-18
-33 0 40 c0 60 46 237 80 310 17 36 32 78 34 94 2 15 6 33 10 40 14 23 -13 10
-65 -31 -89 -70 -202 -180 -231 -225 -15 -24 -30 -43 -34 -43 -11 0 5 80 36
180 18 59 48 126 80 178 36 57 49 88 45 102 -4 11 -11 20 -16 20 -5 0 -49 -20
-97 -45 -197 -100 -440 -349 -594 -608 -23 -38 -44 -65 -46 -59 -2 6 1 20 7
31 14 25 14 44 1 36 -6 -3 -7 1 -4 9 9 22 -13 20 -48 -5 -69 -50 -178 -98
-178 -79 0 5 33 37 73 72 92 80 225 220 308 323 35 44 71 88 79 98 8 10 54 50
102 88 48 38 90 74 93 78 6 10 -97 -27 -105 -37 -3 -4 -14 -8 -25 -9 -11 0
-54 -11 -95 -23 -68 -21 -77 -21 -105 -7 -16 8 -38 18 -48 21 -35 11 -12 31
32 28 77 -7 147 17 341 113 52 26 117 53 143 61 26 8 45 19 42 24 -7 11 32 23
46 14 7 -4 9 -3 6 3 -9 14 10 28 46 37 33 8 35 22 5 31 -13 4 -36 12 -53 20
-152 69 -185 85 -185 89 0 5 49 -9 133 -38 53 -18 142 -22 152 -6 3 6 -3 10
-15 10 -28 0 -151 53 -215 91 -27 17 -60 46 -72 64 l-21 33 41 -14 c22 -8 45
-18 51 -22 6 -5 38 -15 71 -22 33 -8 69 -19 80 -26 11 -6 42 -17 68 -23 64
-15 76 -6 70 57 l-4 47 18 -35 c10 -19 33 -42 53 -51 71 -35 155 -72 185 -81
46 -14 135 -26 135 -17 0 4 -20 27 -44 51 -24 23 -47 53 -51 66 -6 20 2 17 55
-24 33 -25 63 -44 65 -42 3 3 -13 29 -35 58 -22 30 -40 64 -40 77 0 27 16 31
24 6 8 -23 104 -128 111 -121 3 3 -1 34 -9 69 -9 37 -12 78 -8 97 7 32 8 30
25 -35 35 -132 42 -150 45 -125 3 20 5 21 20 6 13 -14 17 -14 21 -3 2 8 7 16
10 19 11 9 61 78 61 84 0 11 92 126 101 126 14 0 12 -11 -21 -101 -16 -46 -30
-86 -30 -87 0 -15 97 57 269 200 59 49 71 55 71 37z m-2005 -167 c-3 -3 -11 0
-18 7 -9 10 -8 11 6 5 10 -3 15 -9 12 -12z m348 -150 l17 -37 -25 30 c-14 17
-31 38 -36 48 -9 16 -8 16 8 6 10 -6 26 -27 36 -47z m236 -52 c12 0 19 -4 16
-10 -10 -16 -58 -11 -92 10 -33 20 -46 47 -18 36 8 -3 15 0 15 6 0 7 13 0 28
-15 15 -15 38 -27 51 -27z m2791 -64 c0 -2 -7 -7 -16 -10 -8 -3 -12 -2 -9 4 6
10 25 14 25 6z m-545 -106 c8 -13 -5 -13 -25 0 -13 8 -13 10 2 10 9 0 20 -4
23 -10z m1490 -492 c29 -25 32 -50 9 -72 -16 -16 -9 -21 24 -17 6 1 12 -5 12
-14 0 -9 5 -13 10 -10 6 3 10 1 10 -4 0 -6 -3 -11 -7 -11 -5 0 -9 -11 -9 -25
-2 -28 -22 -57 -34 -50 -4 3 -13 -2 -20 -10 -9 -11 -9 -15 -1 -15 7 0 9 -5 5
-12 -4 -7 2 -5 14 6 25 22 88 16 90 -9 6 -58 3 -98 -8 -105 -7 -4 -10 -12 -6
-18 12 -19 -78 -32 -116 -17 -10 4 -18 3 -18 -3 0 -10 -56 -27 -75 -23 -5 2
-14 3 -20 4 -5 1 -13 7 -17 12 -5 7 -13 6 -25 -1 -20 -11 -53 -7 -53 6 0 6
-10 6 -23 1 -13 -5 -30 -5 -38 -1 -9 6 -20 3 -32 -7 -15 -15 -17 -15 -12 -1 7
19 -22 51 -38 41 -7 -3 -8 -2 -4 3 5 5 14 9 20 9 7 1 11 7 9 14 -2 8 3 11 12
8 9 -4 18 -1 22 5 4 7 3 8 -4 4 -7 -4 -12 -2 -12 3 0 15 11 13 34 -4 11 -8 24
-15 30 -15 5 0 1 7 -10 15 -17 13 -12 14 50 9 53 -4 67 -2 64 8 -5 14 -30 18
-39 6 -3 -4 -14 -1 -25 8 -10 8 -14 13 -9 10 6 -2 21 8 33 24 13 15 34 31 47
34 32 8 32 24 0 32 -30 8 -23 24 11 24 13 0 24 5 24 11 0 5 5 7 10 4 6 -3 10
2 10 12 0 15 2 16 10 3 7 -11 10 -11 10 -2 0 7 14 26 30 42 17 16 30 32 30 35
0 5 -50 -24 -60 -35 -3 -3 -16 -7 -28 -7 -16 -1 -22 2 -18 12 2 7 0 16 -7 19
-7 2 -2 5 9 5 14 1 21 7 20 19 -1 13 6 17 34 16 19 -1 44 -4 55 -6 11 -3 14
-3 8 -1 -7 3 -13 9 -13 14 0 6 -4 8 -9 5 -5 -4 -7 3 -4 14 7 25 7 25 38 -2z
m-168 -24 c-3 -3 -12 -4 -19 -1 -8 3 -5 6 6 6 11 1 17 -2 13 -5z m20 -15 c-10
-6 -14 -15 -10 -22 5 -9 2 -8 -9 0 -8 7 -18 10 -21 6 -4 -3 -7 -3 -7 1 0 7 38
24 55 25 6 0 2 -4 -8 -10z m-32 -79 c3 -5 1 -10 -4 -10 -6 0 -11 5 -11 10 0 6
2 10 4 10 3 0 8 -4 11 -10z m-3570 -70 c-20 -22 -53 -32 -62 -18 -3 7 -1 8 5
4 11 -6 13 -2 11 22 0 9 43 21 54 14 5 -2 1 -12 -8 -22z m3425 -67 c0 -5 -9
-19 -20 -33 -13 -17 -18 -20 -17 -9 4 25 37 63 37 42z m-2777 -97 c-3 -22 -10
-45 -16 -51 -6 -7 -8 3 -3 30 3 22 6 51 6 65 0 18 3 21 9 11 5 -7 6 -32 4 -55z
m97 -46 c0 -18 -3 -19 -20 -8 -18 12 -19 13 -2 20 9 3 18 7 20 7 1 1 2 -8 2
-19z m3130 -96 c0 -24 -24 -69 -62 -115 -21 -26 -38 -50 -38 -54 0 -4 -16 -25
-35 -48 -19 -22 -35 -51 -35 -63 0 -26 -16 -41 -23 -22 -2 8 -43 -25 -97 -79
-71 -71 -96 -90 -106 -82 -14 11 -8 42 7 34 4 -3 14 3 21 15 7 11 17 20 23 20
5 0 19 15 30 32 11 18 28 44 37 58 19 29 23 44 8 35 -5 -3 -10 1 -10 9 0 9 -4
16 -9 16 -5 0 -12 11 -15 25 -5 21 -9 23 -20 13 -8 -7 -12 -16 -9 -20 2 -5 -1
-8 -6 -8 -6 0 -11 8 -11 18 -1 15 -2 15 -15 -2 -8 -11 -15 -15 -15 -9 0 11 27
43 36 43 3 0 2 -6 -1 -12 -4 -7 0 -4 9 6 8 10 13 23 9 29 -3 6 -1 7 5 3 6 -3
15 0 19 9 5 8 22 16 38 18 61 7 124 58 117 93 -3 15 81 51 118 51 18 0 30 -6
30 -13z m-171 -50 c-6 -7 -15 -11 -20 -8 -5 3 -8 0 -7 -7 2 -6 -3 -14 -9 -16
-22 -8 -14 25 9 41 25 18 44 11 27 -10z m-1429 -15 c-57 -15 -380 -24 -380
-11 0 11 71 15 340 19 63 1 69 -1 40 -8z m-2240 -34 c35 -18 62 -75 68 -142
12 -138 -128 -222 -252 -149 -48 28 -86 90 -86 140 0 63 58 135 132 163 38 14
97 9 138 -12z m3405 -375 c-3 -5 -12 -10 -18 -10 -7 0 -6 4 3 10 19 12 23 12
15 0z m-4327 -336 c-8 -9 -26 -14 -39 -12 -22 4 -22 6 11 20 40 18 51 15 28
-8z m-168 -44 c0 -5 -5 -10 -11 -10 -5 0 -7 5 -4 10 3 6 8 10 11 10 2 0 4 -4
4 -10z m1363 -285 c8 -18 -11 -31 -25 -17 -11 11 -3 32 12 32 4 0 10 -7 13
-15z m-790 -839 c5 -8 10 -7 16 2 6 10 11 5 21 -17 13 -32 34 -44 23 -13 -6
15 -5 15 10 3 24 -19 23 -81 0 -82 -10 0 -13 -3 -6 -5 6 -3 23 2 37 12 25 16
26 16 26 -5 0 -11 6 -21 13 -21 9 0 8 -3 -2 -9 -11 -7 -10 -11 7 -20 15 -8 21
-8 24 1 2 6 9 9 16 7 14 -5 -13 -66 -41 -91 -10 -9 -14 -19 -9 -22 6 -3 12 1
16 9 3 8 10 15 16 15 6 0 8 -4 5 -10 -3 -6 1 -7 10 -4 14 6 16 -1 15 -42 -3
-85 0 -102 18 -120 13 -13 17 -34 16 -86 0 -37 3 -62 8 -55 5 8 8 6 9 -8 5
-48 8 -74 19 -133 14 -71 8 -101 -15 -82 -8 7 -15 26 -15 42 0 27 -3 30 -25
26 -13 -3 -24 -2 -23 1 2 18 -3 32 -10 27 -4 -2 -6 11 -4 31 3 21 1 33 -5 30
-5 -3 -9 2 -9 11 0 54 -5 72 -20 72 -9 0 -12 5 -8 13 4 6 -7 -1 -24 -17 -22
-21 -43 -30 -74 -32 -24 -1 -43 -3 -43 -4 0 -3 -41 -11 -57 -11 -10 0 -18 -4
-18 -8 0 -4 -7 -8 -15 -8 -9 0 -15 10 -15 24 0 13 4 22 10 18 6 -3 8 18 7 55
-2 33 1 60 5 60 4 0 8 7 8 15 0 8 -4 15 -10 15 -5 0 -10 5 -10 11 0 5 5 7 12
3 7 -4 8 -3 4 4 -4 7 -14 12 -22 12 -8 0 -14 5 -14 11 0 5 -4 7 -10 4 -5 -3
-10 -1 -10 5 0 7 -7 10 -15 6 -8 -3 -15 -2 -15 3 0 4 -12 6 -26 3 -24 -4 -26
-2 -19 19 4 13 18 36 32 50 20 21 21 27 9 32 -15 6 -11 47 5 47 5 0 9 11 9 25
0 14 4 25 8 25 5 0 14 17 20 39 7 21 21 59 32 84 19 42 22 45 58 44 20 0 40
-5 45 -11z m4357 -610 c0 -3 -4 -8 -10 -11 -5 -3 -10 -1 -10 4 0 6 5 11 10 11
6 0 10 -2 10 -4z m-3964 -141 c9 -8 13 -15 10 -15 -12 0 30 -42 50 -50 25 -10
34 -46 34 -137 0 -54 -2 -62 -14 -51 -8 7 -10 14 -6 16 10 4 -68 85 -96 100
-23 12 -26 48 -10 120 9 36 11 38 32 17z m142 -194 c8 -4 16 -28 18 -52 5 -39
4 -42 -9 -26 -21 25 -30 21 -22 -10 13 -51 14 -97 3 -104 -9 -6 -9 -11 -1 -21
6 -7 10 -31 8 -53 -1 -22 2 -43 7 -46 6 -4 3 -17 -7 -33 -29 -43 -31 -31 -21
127 2 23 -6 55 -16 77 -18 36 -18 40 -3 63 8 13 13 31 10 40 -4 8 -1 18 4 22
6 3 9 11 6 16 -8 11 5 12 23 0z m228 -38 c-3 -7 4 -22 16 -33 12 -11 19 -22
16 -26 -4 -3 2 -14 13 -25 15 -15 17 -24 9 -39 -6 -11 -8 -26 -3 -33 4 -6 7
-21 8 -32 0 -12 6 -19 14 -17 12 3 12 0 2 -11 -9 -12 -8 -18 4 -30 20 -21 19
-45 -2 -43 -25 2 -53 32 -59 66 -4 16 -13 32 -22 35 -13 5 -14 8 -4 14 8 5 1
8 -19 9 -17 0 -39 -6 -47 -15 -14 -13 -17 -12 -29 11 -8 15 -11 30 -8 35 3 5
-6 8 -20 6 -14 -1 -23 0 -21 3 3 2 -1 11 -9 19 -8 8 -15 20 -15 26 0 7 9 1 19
-12 10 -14 21 -19 24 -13 4 5 0 15 -8 22 -8 7 -15 22 -15 33 0 15 3 18 11 10
6 -6 12 -17 13 -24 6 -29 19 -49 30 -47 6 1 23 -6 38 -16 30 -20 67 -15 51 7
-11 13 -24 72 -27 123 -2 30 -1 31 21 21 13 -6 22 -16 19 -24z m2831 0 c-3 -5
11 -8 31 -9 54 0 86 -9 144 -41 76 -40 72 -59 -22 -105 -41 -20 -93 -38 -115
-41 -22 -2 -67 -12 -100 -20 -33 -9 -78 -19 -100 -22 -22 -4 -58 -11 -81 -15
-75 -17 -154 -22 -154 -11 0 14 -27 14 -32 0 -6 -18 -187 -18 -205 0 -13 12
-13 15 1 23 9 5 16 15 16 22 0 17 85 58 185 91 28 9 64 22 80 30 52 22 199 65
226 65 14 0 29 4 35 9 5 5 25 14 44 19 45 13 52 14 47 5z m-2751 -159 c2 -12
-1 -13 -12 -3 -7 6 -11 16 -8 21 7 11 17 3 20 -18z m74 -27 c0 -5 -7 -2 -15 7
-8 8 -15 20 -15 27 0 14 29 -20 30 -34z m-35 3 c3 -6 -1 -7 -9 -4 -18 7 -21
14 -7 14 6 0 13 -4 16 -10z"/>
<path d="M2590 4590 c-13 -8 -12 -10 3 -10 9 0 17 5 17 10 0 12 -1 12 -20 0z"/>
<path d="M3010 4400 c0 -5 5 -10 11 -10 5 0 7 5 4 10 -3 6 -8 10 -11 10 -2 0
-4 -4 -4 -10z"/>
<path d="M1375 4380 c-3 -5 -1 -10 4 -10 6 0 11 5 11 10 0 6 -2 10 -4 10 -3 0
-8 -4 -11 -10z"/>
<path d="M2759 4296 c6 -7 34 -25 63 -41 68 -37 182 -111 202 -130 8 -9 35
-31 60 -50 40 -30 48 -33 78 -24 45 12 95 11 121 -3 21 -11 21 -10 7 8 -14 18
-14 18 8 -1 26 -22 76 -32 70 -15 -4 12 -188 112 -188 103 0 -2 -21 7 -47 21
-27 13 -59 29 -73 35 -14 6 -32 15 -40 20 -13 9 -35 19 -115 51 -11 5 -33 11
-50 14 -16 3 -47 10 -68 15 -30 7 -36 6 -28 -3z"/>
<path d="M2990 3955 c7 -9 15 -13 17 -11 7 7 -7 26 -19 26 -6 0 -6 -6 2 -15z"/>
<path d="M4355 780 c-3 -5 -1 -10 4 -10 6 0 11 5 11 10 0 6 -2 10 -4 10 -3 0
-8 -4 -11 -10z"/>
<path d="M3514 772 c-6 -4 -10 -35 -10 -68 l1 -62 45 2 45 1 -3 40 c-1 22 -7
42 -13 44 -6 2 -14 14 -19 27 -10 24 -26 30 -46 16z"/>
<path d="M4015 720 c-3 -5 -2 -10 4 -10 5 0 13 5 16 10 3 6 2 10 -4 10 -5 0
-13 -4 -16 -10z"/>
<path d="M3820 687 c-12 -21 -12 -21 6 -7 10 8 20 15 22 16 2 1 -1 4 -5 7 -5
3 -15 -4 -23 -16z"/>
<path d="M4390 631 c0 -5 7 -11 15 -15 8 -3 15 -1 15 3 0 5 -7 11 -15 15 -8 3
-15 1 -15 -3z"/>
<path d="M3552 622 c-9 -6 -10 -15 -3 -33 5 -13 10 -18 10 -11 1 7 5 11 10 8
4 -3 6 6 3 19 -2 14 -5 25 -6 25 0 0 -7 -4 -14 -8z"/>
<path d="M4686 552 c-3 -6 -1 -14 5 -17 15 -10 25 3 12 16 -7 7 -13 7 -17 1z"/>
<path d="M4750 3570 c-9 -6 -10 -10 -3 -10 6 0 15 5 18 10 8 12 4 12 -15 0z"/>
<path d="M4850 3490 c-9 -6 -10 -10 -3 -10 6 0 15 5 18 10 8 12 4 12 -15 0z"/>
<path d="M4810 3475 c0 -8 4 -15 10 -15 5 0 7 7 4 15 -4 8 -8 15 -10 15 -2 0
-4 -7 -4 -15z"/>
<path d="M720 1200 c0 -13 18 -22 24 -11 3 5 -1 11 -9 15 -8 3 -15 1 -15 -4z"/>
<path d="M975 490 c3 -5 8 -10 11 -10 2 0 4 5 4 10 0 6 -5 10 -11 10 -5 0 -7
-4 -4 -10z"/>
<path d="M3728 123 c6 -2 18 -2 25 0 6 3 1 5 -13 5 -14 0 -19 -2 -12 -5z"/>
</g>
</svg>
